<svg width="1280" height="832" viewBox="0 0 1280 832" fill="none" xmlns="http://www.w3.org/2000/svg">
<g clip-path="url(#clip0_221_209)">
<rect width="1280" height="832" fill="#13724A"/>
<path fill-rule="evenodd" clip-rule="evenodd" d="M609.946 182.896C599.187 225.113 557.113 248.721 524.336 277.467C493.664 304.368 465.604 336.578 425.568 344.598C384.446 352.836 339.685 344.994 305.015 321.402C272.207 299.078 259.431 258.939 245.269 221.912C232.481 188.481 223.211 154.23 227.485 118.709C231.921 81.8416 244.552 45.8899 269.734 18.574C295.779 -9.67819 330.699 -29.8778 368.869 -34.6547C406.531 -39.368 441.586 -22.0932 476.545 -7.30787C514.841 8.88868 557.155 21.0521 581.011 55.0668C606.742 91.7541 621.002 139.51 609.946 182.896Z" fill="#05E184"/>
<path fill-rule="evenodd" clip-rule="evenodd" d="M1096.09 463.559C1135.83 510.953 1127.09 582.849 1089.62 642.687C1053.06 701.089 989.235 743.897 926.275 734.799C865.497 726.016 838.895 666.922 834.363 605.802C829.28 537.259 837.279 455.74 902.937 420.057C973.223 381.858 1051.14 409.954 1096.09 463.559Z" fill="#05DC81"/>
<path fill-rule="evenodd" clip-rule="evenodd" d="M294.546 705.101C331.195 767.629 309.11 844.702 304.01 916.999C299.237 984.654 303.757 1055.54 265.856 1111.79C226.927 1169.56 164.902 1212.55 96.383 1225.11C31.5444 1237 -30.4669 1204.42 -90.4759 1177.13C-144.658 1152.5 -195.646 1122.79 -232.124 1075.76C-269.985 1026.94 -297.098 969.645 -299.294 907.91C-301.566 844.058 -283.945 779.374 -244.456 729.147C-205.493 679.589 -143.903 659.098 -85.3362 635.773C-21.1798 610.221 43.0064 575.204 110.942 587.603C184.215 600.975 256.882 640.842 294.546 705.101Z" stroke="#05E184" stroke-width="7"/>
<path fill-rule="evenodd" clip-rule="evenodd" d="M1341.08 166.929C1364.26 194.2 1362.61 232.671 1345.16 263.421C1328.12 293.432 1295.89 313.875 1261.94 306.315C1229.17 299.017 1212.51 265.977 1207.53 232.77C1201.94 195.53 1202.77 151.83 1236.28 135.313C1272.14 117.632 1314.86 136.083 1341.08 166.929Z" fill="#05E184" stroke="black"/>
</g>
<defs>
<clipPath id="clip0_221_209">
<rect width="1280" height="832" fill="white"/>
</clipPath>
</defs>
</svg>
